<?xml version="1.0" encoding="UTF-8" standalone="no"?>
<!-- Created with Inkscape (http://www.inkscape.org/) -->

<svg
   width="210mm"
   height="168.80202mm"
   viewBox="0 0 210 168.80202"
   version="1.1"
   id="svg5"
   xml:space="preserve"
   inkscape:version="1.2.2 (b0a8486541, 2022-12-01)"
   sodipodi:docname="OG_Large.svg"
   inkscape:export-filename="large.svg"
   inkscape:export-xdpi="96"
   inkscape:export-ydpi="96"
   xmlns:inkscape="http://www.inkscape.org/namespaces/inkscape"
   xmlns:sodipodi="http://sodipodi.sourceforge.net/DTD/sodipodi-0.dtd"
   xmlns="http://www.w3.org/2000/svg"
   xmlns:svg="http://www.w3.org/2000/svg"><sodipodi:namedview
     id="namedview7"
     pagecolor="#ffffff"
     bordercolor="#000000"
     borderopacity="0.25"
     inkscape:showpageshadow="2"
     inkscape:pageopacity="0.0"
     inkscape:pagecheckerboard="0"
     inkscape:deskcolor="#d1d1d1"
     inkscape:document-units="mm"
     showgrid="false"
     inkscape:zoom="0.80461734"
     inkscape:cx="-90.726357"
     inkscape:cy="318.16366"
     inkscape:window-width="1920"
     inkscape:window-height="1032"
     inkscape:window-x="0"
     inkscape:window-y="24"
     inkscape:window-maximized="1"
     inkscape:current-layer="layer1"
     showguides="false" /><defs
     id="defs2" /><g
     inkscape:label="Layer 1"
     inkscape:groupmode="layer"
     id="layer1"><g
       id="g169"
       transform="translate(155.84023,1.8110208)"><path
         style="fill:#f0fe77;stroke-width:0.264583"
         d="m -134.18362,138.18395 h -6.87917 V 96.77666 55.369367 h 6.87917 6.87917 v 41.407293 41.40729 z m 0,-96.572916 h -6.87917 V 34.731867 27.8527 h 6.87917 6.87917 v 6.879167 6.879167 z"
         id="path195" /><path
         style="fill:#77feee;stroke-width:0.264583"
         d="m -79.150286,151.94229 h -6.879166 v -13.75834 -13.75833 h 6.879166 6.879167 v 13.75833 13.75834 z m 0,-41.27501 h -6.879166 V 62.380826 14.094367 h 6.879166 6.879167 v 48.286459 48.286454 z"
         id="path193" /><path
         style="fill:#e577fe;stroke-width:0.264583"
         d="M 3.3997157,151.94229 H -3.479451 v -13.75834 -13.75833 h 6.8791667 6.8791663 v 13.75833 13.75834 z m 0,-55.033339 H -3.479451 V 83.018326 69.127701 h 6.8791667 6.8791663 v 13.890625 13.890625 z m 0,-55.297917 H -3.479451 V 27.8527 14.094367 H 3.3997157 10.278882 V 27.8527 41.611034 Z"
         id="path191" /><path
         style="fill:#77e1fe;stroke-width:0.264583"
         d="m -65.391952,138.18395 h -6.879167 v -6.87916 -6.87917 h 6.879167 6.879167 v 6.87917 6.87916 z m 0,-27.51667 h -6.879167 V 69.259992 27.8527 h 6.879167 6.879167 v 41.407292 41.407288 z"
         id="path189" /><path
         style="fill:#fe77d8;stroke-width:0.264583"
         d="m 17.158049,151.94229 h -6.879167 v -41.4073 -41.407289 h 6.879167 6.879167 v 41.407289 41.4073 z m 0,-96.572923 h -6.879167 v -20.6375 -20.6375 h 6.879167 6.879167 v 20.6375 20.6375 z"
         id="path187" /><path
         style="fill:#c877fe;stroke-width:0.264583"
         d="m -10.358618,151.94229 h -6.879167 v -13.75834 -13.75833 h 6.879167 6.879167 v 13.75833 13.75834 z m 0,-110.331256 h -6.879167 V 27.8527 14.094367 h 6.879167 6.879167 V 27.8527 41.611034 Z"
         id="path185" /><path
         style="fill:#77fec3;stroke-width:0.264583"
         d="m -92.908619,151.94229 h -6.879167 v -13.75834 -13.75833 h 6.879167 6.879167 v 13.75833 13.75834 z m 0,-110.331256 h -6.879167 V 27.8527 14.094367 h 6.879167 6.879167 V 27.8527 41.611034 Z"
         id="path183" /><path
         style="fill:#bffe77;stroke-width:0.264583"
         d="m -120.42529,151.94229 h -6.87916 V 103.65583 55.369367 h 6.87916 6.87917 v 48.286463 48.28646 z m 0,-110.331256 h -6.87916 V 27.8527 14.094367 h 6.87916 6.87917 V 27.8527 41.611034 Z"
         id="path181" /><path
         style="fill:#fe77ab;stroke-width:0.264583"
         d="M 30.916383,138.18395 H 24.037216 V 103.65583 69.127701 h 6.879167 6.879167 v 34.528129 34.52812 z m 0,-82.814583 H 24.037216 V 41.611034 27.8527 h 6.879167 6.879167 v 13.758334 13.758333 z"
         id="path179" /><path
         style="fill:#a677fe;stroke-width:0.264583"
         d="m -24.116951,151.94229 h -6.879167 V 83.018326 14.094367 h 6.879167 6.879166 v 68.923959 68.923964 z"
         id="path177" /><path
         style="fill:#8277fe;stroke-width:0.264583"
         d="m -37.875285,138.18395 h -6.879167 V 83.018326 27.8527 h 6.879167 6.879167 v 55.165626 55.165624 z"
         id="path175" /><path
         style="fill:#77fe79;stroke-width:0.264583"
         d="m -106.66695,151.94229 h -6.87917 v -13.75834 -13.75833 h 6.87917 6.879164 v 13.75833 13.75834 z m 0,-110.331256 h -6.87917 V 27.8527 14.094367 h 6.87917 6.879164 V 27.8527 41.611034 Z"
         id="path173" /><path
         style="fill:#000000;stroke-width:0.264583"
         d="m -99.787786,165.70062 h -27.516664 v -6.87917 -6.87916 h -6.87917 -6.87917 v -6.87917 -6.87917 h -6.87916 -6.87917 V 83.018326 27.8527 h 6.87917 6.87916 v -6.879167 -6.879166 h 6.87917 6.87917 V 7.2151999 0.33603308 h 27.516664 27.516667 V 7.2151999 14.094367 h 6.879167 6.879167 v 6.879166 6.879167 h 6.879167 6.879166 v -6.879167 -6.879166 h 6.879167 6.879167 V 7.2151999 0.33603308 H -3.479451 24.037216 V 7.2151999 14.094367 h 6.879167 6.879167 v 6.879166 6.879167 h 6.879166 6.879167 V 83.018326 138.18395 H 44.674716 37.79555 v 6.87917 6.87917 h -6.879167 -6.879167 v 6.87916 6.87917 H -3.479451 -30.996118 v -6.87917 -6.87916 h -6.879167 -6.879167 v -6.87917 -6.87917 h -6.879166 -6.879167 v 6.87917 6.87917 h -6.879167 -6.879167 v 6.87916 6.87917 z m 0,-13.75833 h 27.516667 v -6.87917 -6.87917 h 6.879167 6.879167 v -6.87916 -6.87917 H -86.029452 -113.54612 V 89.897493 55.369367 h -13.75833 -13.75834 v 41.407293 41.40729 h 6.87917 6.87917 v 6.87917 6.87917 z m 96.308335,0 h 27.516667 v -6.87917 -6.87917 h 6.879167 6.879167 V 103.65583 69.127701 h -20.637501 -20.6375 v 13.890625 13.890625 h 6.8791667 6.8791663 v 13.758329 13.75834 H -3.479451 -17.237785 V 83.018326 41.611034 H -3.479451 10.278882 V 48.4902 55.369367 H 24.037216 37.79555 V 41.611034 27.8527 H 30.916383 24.037216 V 20.973533 14.094367 H -3.479451 -30.996118 v 6.879166 6.879167 h -6.879167 -6.879167 v 55.165626 55.165624 h 6.879167 6.879167 v 6.87917 6.87917 z m -68.791668,-41.27501 h 13.758334 V 69.259992 27.8527 h -6.879167 -6.879167 v -6.879167 -6.879166 h -27.516667 -27.516664 v 6.879166 6.879167 h -6.87917 -6.87917 v 6.879167 6.879167 h 27.51667 27.516668 v 34.528125 34.528121 z"
         id="path171" /></g></g></svg>
